<?xml version="1.0" standalone="no"?><svg xmlns:xlink="http://www.w3.org/1999/xlink" xmlns="http://www.w3.org/2000/svg" viewBox="0 0 1000 888.8888888888889" preserveAspectRatio="xMaxYMax slice"><g transform="scale(1.3407072230601642)"><rect x="0" y="0" width="745.875" height="663" fill="#fecd1a"/><rect x="82.875" y="0" width="82.875" height="82.875" fill="#fecd1a"/><rect x="82.88" y="0" width="41.44" height="41.44" fill="#fd3a69"/><rect x="82.88" y="0" width="41.44" height="41.44" fill="#fd3a69"/><rect x="124.31" y="0" width="41.44" height="41.44" fill="#120078"/><rect x="124.31" y="0" width="41.44" height="41.44" fill="#fd3a69"/><rect x="82.88" y="41.44" width="41.44" height="41.44" fill="#120078"/><rect x="82.88" y="41.44" width="41.44" height="41.44" fill="#fd3a69"/><rect x="124.31" y="41.44" width="41.44" height="41.44" fill="#120078"/><rect x="124.31" y="41.44" width="41.44" height="41.44" fill="#120078"/><rect x="165.75" y="0" width="82.875" height="82.875" fill="#fecd1a"/><rect x="165.75" y="0" width="41.44" height="41.44" fill="#120078"/><rect x="165.75" y="0" width="41.44" height="41.44" fill="#fd3a69"/><rect x="207.19" y="0" width="41.44" height="41.44" fill="#fd3a69"/><rect x="207.19" y="0" width="41.44" height="41.44" fill="#fd3a69"/><rect x="165.75" y="41.44" width="41.44" height="41.44" fill="#120078"/><rect x="165.75" y="41.44" width="41.44" height="41.44" fill="#120078"/><rect x="207.19" y="41.44" width="41.44" height="41.44" fill="#fd3a69"/><rect x="207.19" y="41.44" width="41.44" height="41.44" fill="#120078"/><rect x="248.625" y="0" width="82.875" height="82.875" fill="#fecd1a"/><rect x="248.63" y="0" width="41.44" height="41.44" fill="#fd3a69"/><rect x="248.63" y="0" width="41.44" height="41.44" fill="#120078"/><rect x="290.06" y="0" width="41.44" height="41.44" fill="#120078"/><rect x="290.06" y="0" width="41.44" height="41.44" fill="#fd3a69"/><rect x="248.63" y="41.44" width="41.44" height="41.44" fill="#fd3a69"/><rect x="248.63" y="41.44" width="41.44" height="41.44" fill="#fd3a69"/><rect x="290.06" y="41.44" width="41.44" height="41.44" fill="#120078"/><rect x="290.06" y="41.44" width="41.44" height="41.44" fill="#fd3a69"/><rect x="331.5" y="0" width="82.875" height="82.875" fill="#fecd1a"/><rect x="331.5" y="0" width="41.44" height="41.44" fill="#120078"/><rect x="331.5" y="0" width="41.44" height="41.44" fill="#fd3a69"/><rect x="372.94" y="0" width="41.44" height="41.44" fill="#fd3a69"/><rect x="372.94" y="0" width="41.44" height="41.44" fill="#120078"/><rect x="331.5" y="41.44" width="41.44" height="41.44" fill="#fd3a69"/><rect x="331.5" y="41.44" width="41.44" height="41.44" fill="#120078"/><rect x="372.94" y="41.44" width="41.44" height="41.44" fill="#120078"/><rect x="372.94" y="41.44" width="41.44" height="41.44" fill="#120078"/><rect x="414.38" y="0" width="82.88" height="82.88" fill="#fd3a69"/><rect x="414.38" y="0" width="82.88" height="82.88" fill="#120078"/><rect x="580.13" y="0" width="82.88" height="82.88" fill="#120078"/><rect x="580.13" y="0" width="82.88" height="82.88" fill="#fd3a69"/><rect x="663" y="0" width="82.875" height="82.875" fill="#fecd1a"/><rect x="663" y="0" width="41.44" height="41.44" fill="#fd3a69"/><rect x="663" y="0" width="41.44" height="41.44" fill="#120078"/><rect x="704.44" y="0" width="41.44" height="41.44" fill="#fd3a69"/><rect x="704.44" y="0" width="41.44" height="41.44" fill="#120078"/><rect x="663" y="41.44" width="41.44" height="41.44" fill="#120078"/><rect x="663" y="41.44" width="41.44" height="41.44" fill="#fd3a69"/><rect x="704.44" y="41.44" width="41.44" height="41.44" fill="#120078"/><rect x="704.44" y="41.44" width="41.44" height="41.44" fill="#120078"/><rect x="82.88" y="82.88" width="82.88" height="82.88" fill="#120078"/><rect x="82.88" y="82.88" width="82.88" height="82.88" fill="#fd3a69"/><rect x="165.75" y="82.875" width="82.875" height="82.875" fill="#fecd1a"/><rect x="165.75" y="82.88" width="41.44" height="41.44" fill="#fd3a69"/><rect x="165.75" y="82.88" width="41.44" height="41.44" fill="#120078"/><rect x="207.19" y="82.88" width="41.44" height="41.44" fill="#120078"/><rect x="207.19" y="82.88" width="41.44" height="41.44" fill="#fd3a69"/><rect x="165.75" y="124.31" width="41.44" height="41.44" fill="#fd3a69"/><rect x="165.75" y="124.31" width="41.44" height="41.44" fill="#fd3a69"/><rect x="207.19" y="124.31" width="41.44" height="41.44" fill="#fd3a69"/><rect x="207.19" y="124.31" width="41.44" height="41.44" fill="#fd3a69"/><rect x="497.25" y="82.875" width="82.875" height="82.875" fill="#fecd1a"/><rect x="497.25" y="82.88" width="41.44" height="41.44" fill="#fd3a69"/><rect x="497.25" y="82.88" width="41.44" height="41.44" fill="#120078"/><rect x="538.69" y="82.88" width="41.44" height="41.44" fill="#120078"/><rect x="538.69" y="82.88" width="41.44" height="41.44" fill="#120078"/><rect x="497.25" y="124.31" width="41.44" height="41.44" fill="#120078"/><rect x="497.25" y="124.31" width="41.44" height="41.44" fill="#fd3a69"/><rect x="538.69" y="124.31" width="41.44" height="41.44" fill="#120078"/><rect x="538.69" y="124.31" width="41.44" height="41.44" fill="#120078"/><rect x="165.75" y="165.75" width="82.875" height="82.875" fill="#fecd1a"/><rect x="165.75" y="165.75" width="41.44" height="41.44" fill="#120078"/><rect x="165.75" y="165.75" width="41.44" height="41.44" fill="#fd3a69"/><rect x="207.19" y="165.75" width="41.44" height="41.44" fill="#120078"/><rect x="207.19" y="165.75" width="41.44" height="41.44" fill="#120078"/><rect x="165.75" y="207.19" width="41.44" height="41.44" fill="#fd3a69"/><rect x="165.75" y="207.19" width="41.44" height="41.44" fill="#fd3a69"/><rect x="207.19" y="207.19" width="41.44" height="41.44" fill="#120078"/><rect x="207.19" y="207.19" width="41.44" height="41.44" fill="#fd3a69"/><rect x="331.5" y="165.75" width="82.88" height="82.88" fill="#fd3a69"/><rect x="331.5" y="165.75" width="82.88" height="82.88" fill="#fd3a69"/><rect x="414.375" y="165.75" width="82.875" height="82.875" fill="#fecd1a"/><rect x="414.38" y="165.75" width="41.44" height="41.44" fill="#120078"/><rect x="414.38" y="165.75" width="41.44" height="41.44" fill="#fd3a69"/><rect x="455.81" y="165.75" width="41.44" height="41.44" fill="#120078"/><rect x="455.81" y="165.75" width="41.44" height="41.44" fill="#fd3a69"/><rect x="414.38" y="207.19" width="41.44" height="41.44" fill="#fd3a69"/><rect x="414.38" y="207.19" width="41.44" height="41.44" fill="#120078"/><rect x="455.81" y="207.19" width="41.44" height="41.44" fill="#fd3a69"/><rect x="455.81" y="207.19" width="41.44" height="41.44" fill="#120078"/><rect x="497.25" y="165.75" width="82.875" height="82.875" fill="#fecd1a"/><rect x="497.25" y="165.75" width="41.44" height="41.44" fill="#120078"/><rect x="497.25" y="165.75" width="41.44" height="41.44" fill="#120078"/><rect x="538.69" y="165.75" width="41.44" height="41.44" fill="#120078"/><rect x="538.69" y="165.75" width="41.44" height="41.44" fill="#fd3a69"/><rect x="497.25" y="207.19" width="41.44" height="41.44" fill="#fd3a69"/><rect x="497.25" y="207.19" width="41.44" height="41.44" fill="#fd3a69"/><rect x="538.69" y="207.19" width="41.44" height="41.44" fill="#fd3a69"/><rect x="538.69" y="207.19" width="41.44" height="41.44" fill="#fd3a69"/><rect x="580.13" y="165.75" width="82.88" height="82.88" fill="#120078"/><rect x="580.13" y="165.75" width="82.88" height="82.88" fill="#fd3a69"/><rect x="663" y="165.75" width="82.88" height="82.88" fill="#120078"/><rect x="663" y="165.75" width="82.88" height="82.88" fill="#120078"/><rect x="0" y="248.625" width="82.875" height="82.875" fill="#fecd1a"/><rect x="0" y="248.63" width="41.44" height="41.44" fill="#120078"/><rect x="0" y="248.63" width="41.44" height="41.44" fill="#fd3a69"/><rect x="41.44" y="248.63" width="41.44" height="41.44" fill="#120078"/><rect x="41.44" y="248.63" width="41.44" height="41.44" fill="#fd3a69"/><rect x="0" y="290.06" width="41.44" height="41.44" fill="#fd3a69"/><rect x="0" y="290.06" width="41.44" height="41.44" fill="#120078"/><rect x="41.44" y="290.06" width="41.44" height="41.44" fill="#fd3a69"/><rect x="41.44" y="290.06" width="41.44" height="41.44" fill="#fd3a69"/><rect x="82.88" y="248.63" width="82.88" height="82.88" fill="#120078"/><rect x="82.88" y="248.63" width="82.88" height="82.88" fill="#120078"/><rect x="165.75" y="248.625" width="82.875" height="82.875" fill="#fecd1a"/><rect x="165.75" y="248.63" width="41.44" height="41.44" fill="#fd3a69"/><rect x="165.75" y="248.63" width="41.44" height="41.44" fill="#fd3a69"/><rect x="207.19" y="248.63" width="41.44" height="41.44" fill="#120078"/><rect x="207.19" y="248.63" width="41.44" height="41.44" fill="#120078"/><rect x="165.75" y="290.06" width="41.44" height="41.44" fill="#120078"/><rect x="165.75" y="290.06" width="41.44" height="41.44" fill="#120078"/><rect x="207.19" y="290.06" width="41.44" height="41.44" fill="#120078"/><rect x="207.19" y="290.06" width="41.44" height="41.44" fill="#120078"/><rect x="248.625" y="248.625" width="82.875" height="82.875" fill="#fecd1a"/><rect x="248.63" y="248.63" width="41.44" height="41.44" fill="#120078"/><rect x="248.63" y="248.63" width="41.44" height="41.44" fill="#fd3a69"/><rect x="290.06" y="248.63" width="41.44" height="41.44" fill="#fd3a69"/><rect x="290.06" y="248.63" width="41.44" height="41.44" fill="#120078"/><rect x="248.63" y="290.06" width="41.44" height="41.44" fill="#120078"/><rect x="248.63" y="290.06" width="41.44" height="41.44" fill="#120078"/><rect x="290.06" y="290.06" width="41.44" height="41.44" fill="#120078"/><rect x="290.06" y="290.06" width="41.44" height="41.44" fill="#120078"/><rect x="497.25" y="248.63" width="82.88" height="82.88" fill="#fd3a69"/><rect x="497.25" y="248.63" width="82.88" height="82.88" fill="#120078"/><rect x="580.125" y="248.625" width="82.875" height="82.875" fill="#fecd1a"/><rect x="580.13" y="248.63" width="41.44" height="41.44" fill="#120078"/><rect x="580.13" y="248.63" width="41.44" height="41.44" fill="#120078"/><rect x="621.56" y="248.63" width="41.44" height="41.44" fill="#fd3a69"/><rect x="621.56" y="248.63" width="41.44" height="41.44" fill="#fd3a69"/><rect x="580.13" y="290.06" width="41.44" height="41.44" fill="#fd3a69"/><rect x="580.13" y="290.06" width="41.44" height="41.44" fill="#fd3a69"/><rect x="621.56" y="290.06" width="41.44" height="41.44" fill="#120078"/><rect x="621.56" y="290.06" width="41.44" height="41.44" fill="#120078"/><rect x="0" y="331.5" width="82.88" height="82.88" fill="#fd3a69"/><rect x="0" y="331.5" width="82.88" height="82.88" fill="#120078"/><rect x="165.75" y="331.5" width="82.875" height="82.875" fill="#fecd1a"/><rect x="165.75" y="331.5" width="41.44" height="41.44" fill="#120078"/><rect x="165.75" y="331.5" width="41.44" height="41.44" fill="#fd3a69"/><rect x="207.19" y="331.5" width="41.44" height="41.44" fill="#fd3a69"/><rect x="207.19" y="331.5" width="41.44" height="41.44" fill="#fd3a69"/><rect x="165.75" y="372.94" width="41.44" height="41.44" fill="#fd3a69"/><rect x="165.75" y="372.94" width="41.44" height="41.44" fill="#120078"/><rect x="207.19" y="372.94" width="41.44" height="41.44" fill="#fd3a69"/><rect x="207.19" y="372.94" width="41.44" height="41.44" fill="#fd3a69"/><rect x="248.625" y="331.5" width="82.875" height="82.875" fill="#fecd1a"/><rect x="248.63" y="331.5" width="41.44" height="41.44" fill="#fd3a69"/><rect x="248.63" y="331.5" width="41.44" height="41.44" fill="#120078"/><rect x="290.06" y="331.5" width="41.44" height="41.44" fill="#120078"/><rect x="290.06" y="331.5" width="41.44" height="41.44" fill="#fd3a69"/><rect x="248.63" y="372.94" width="41.44" height="41.44" fill="#120078"/><rect x="248.63" y="372.94" width="41.44" height="41.44" fill="#fd3a69"/><rect x="290.06" y="372.94" width="41.44" height="41.44" fill="#120078"/><rect x="290.06" y="372.94" width="41.44" height="41.44" fill="#fd3a69"/><rect x="331.5" y="331.5" width="82.875" height="82.875" fill="#fecd1a"/><rect x="331.5" y="331.5" width="41.44" height="41.44" fill="#fd3a69"/><rect x="331.5" y="331.5" width="41.44" height="41.44" fill="#120078"/><rect x="372.94" y="331.5" width="41.44" height="41.44" fill="#fd3a69"/><rect x="372.94" y="331.5" width="41.44" height="41.44" fill="#120078"/><rect x="331.5" y="372.94" width="41.44" height="41.44" fill="#120078"/><rect x="331.5" y="372.94" width="41.44" height="41.44" fill="#fd3a69"/><rect x="372.94" y="372.94" width="41.44" height="41.44" fill="#120078"/><rect x="372.94" y="372.94" width="41.44" height="41.44" fill="#fd3a69"/><rect x="497.25" y="331.5" width="82.88" height="82.88" fill="#fd3a69"/><rect x="497.25" y="331.5" width="82.88" height="82.88" fill="#120078"/><rect x="580.125" y="331.5" width="82.875" height="82.875" fill="#fecd1a"/><rect x="580.13" y="331.5" width="41.44" height="41.44" fill="#fd3a69"/><rect x="580.13" y="331.5" width="41.44" height="41.44" fill="#fd3a69"/><rect x="621.56" y="331.5" width="41.44" height="41.44" fill="#fd3a69"/><rect x="621.56" y="331.5" width="41.44" height="41.44" fill="#fd3a69"/><rect x="580.13" y="372.94" width="41.44" height="41.44" fill="#120078"/><rect x="580.13" y="372.94" width="41.44" height="41.44" fill="#fd3a69"/><rect x="621.56" y="372.94" width="41.44" height="41.44" fill="#120078"/><rect x="621.56" y="372.94" width="41.44" height="41.44" fill="#120078"/><rect x="663" y="331.5" width="82.875" height="82.875" fill="#fecd1a"/><rect x="663" y="331.5" width="41.44" height="41.44" fill="#fd3a69"/><rect x="663" y="331.5" width="41.44" height="41.44" fill="#120078"/><rect x="704.44" y="331.5" width="41.44" height="41.44" fill="#fd3a69"/><rect x="704.44" y="331.5" width="41.44" height="41.44" fill="#120078"/><rect x="663" y="372.94" width="41.44" height="41.44" fill="#fd3a69"/><rect x="663" y="372.94" width="41.44" height="41.44" fill="#120078"/><rect x="704.44" y="372.94" width="41.44" height="41.44" fill="#120078"/><rect x="704.44" y="372.94" width="41.44" height="41.44" fill="#120078"/><rect x="82.88" y="414.38" width="82.88" height="82.88" fill="#fd3a69"/><rect x="82.88" y="414.38" width="82.88" height="82.88" fill="#120078"/><rect x="331.5" y="414.38" width="82.88" height="82.88" fill="#fd3a69"/><rect x="331.5" y="414.38" width="82.88" height="82.88" fill="#120078"/><rect x="414.375" y="414.375" width="82.875" height="82.875" fill="#fecd1a"/><rect x="414.38" y="414.38" width="41.44" height="41.44" fill="#fd3a69"/><rect x="414.38" y="414.38" width="41.44" height="41.44" fill="#120078"/><rect x="455.81" y="414.38" width="41.44" height="41.44" fill="#fd3a69"/><rect x="455.81" y="414.38" width="41.44" height="41.44" fill="#120078"/><rect x="414.38" y="455.81" width="41.44" height="41.44" fill="#fd3a69"/><rect x="414.38" y="455.81" width="41.44" height="41.44" fill="#120078"/><rect x="455.81" y="455.81" width="41.44" height="41.44" fill="#fd3a69"/><rect x="455.81" y="455.81" width="41.44" height="41.44" fill="#fd3a69"/><rect x="580.125" y="414.375" width="82.875" height="82.875" fill="#fecd1a"/><rect x="580.13" y="414.38" width="41.44" height="41.44" fill="#fd3a69"/><rect x="580.13" y="414.38" width="41.44" height="41.44" fill="#120078"/><rect x="621.56" y="414.38" width="41.44" height="41.44" fill="#fd3a69"/><rect x="621.56" y="414.38" width="41.44" height="41.44" fill="#120078"/><rect x="580.13" y="455.81" width="41.44" height="41.44" fill="#fd3a69"/><rect x="580.13" y="455.81" width="41.44" height="41.44" fill="#120078"/><rect x="621.56" y="455.81" width="41.44" height="41.44" fill="#120078"/><rect x="621.56" y="455.81" width="41.44" height="41.44" fill="#120078"/><rect x="663" y="414.38" width="82.88" height="82.88" fill="#fd3a69"/><rect x="663" y="414.38" width="82.88" height="82.88" fill="#fd3a69"/><rect x="82.875" y="497.25" width="82.875" height="82.875" fill="#fecd1a"/><rect x="82.88" y="497.25" width="41.44" height="41.44" fill="#120078"/><rect x="82.88" y="497.25" width="41.44" height="41.44" fill="#120078"/><rect x="124.31" y="497.25" width="41.44" height="41.44" fill="#fd3a69"/><rect x="124.31" y="497.25" width="41.44" height="41.44" fill="#fd3a69"/><rect x="82.88" y="538.69" width="41.44" height="41.44" fill="#fd3a69"/><rect x="82.88" y="538.69" width="41.44" height="41.44" fill="#120078"/><rect x="124.31" y="538.69" width="41.44" height="41.44" fill="#fd3a69"/><rect x="124.31" y="538.69" width="41.44" height="41.44" fill="#120078"/><rect x="331.5" y="497.25" width="82.875" height="82.875" fill="#fecd1a"/><rect x="331.5" y="497.25" width="41.44" height="41.44" fill="#120078"/><rect x="331.5" y="497.25" width="41.44" height="41.44" fill="#fd3a69"/><rect x="372.94" y="497.25" width="41.44" height="41.44" fill="#120078"/><rect x="372.94" y="497.25" width="41.44" height="41.44" fill="#fd3a69"/><rect x="331.5" y="538.69" width="41.44" height="41.44" fill="#120078"/><rect x="331.5" y="538.69" width="41.44" height="41.44" fill="#fd3a69"/><rect x="372.94" y="538.69" width="41.44" height="41.44" fill="#fd3a69"/><rect x="372.94" y="538.69" width="41.44" height="41.44" fill="#120078"/><rect x="414.38" y="497.25" width="82.88" height="82.88" fill="#fd3a69"/><rect x="414.38" y="497.25" width="82.88" height="82.88" fill="#120078"/><rect x="497.25" y="497.25" width="82.88" height="82.88" fill="#120078"/><rect x="497.25" y="497.25" width="82.88" height="82.88" fill="#fd3a69"/><rect x="580.125" y="497.25" width="82.875" height="82.875" fill="#fecd1a"/><rect x="580.13" y="497.25" width="41.44" height="41.44" fill="#fd3a69"/><rect x="580.13" y="497.25" width="41.44" height="41.44" fill="#fd3a69"/><rect x="621.56" y="497.25" width="41.44" height="41.44" fill="#fd3a69"/><rect x="621.56" y="497.25" width="41.44" height="41.44" fill="#120078"/><rect x="580.13" y="538.69" width="41.44" height="41.44" fill="#120078"/><rect x="580.13" y="538.69" width="41.44" height="41.44" fill="#fd3a69"/><rect x="621.56" y="538.69" width="41.44" height="41.44" fill="#fd3a69"/><rect x="621.56" y="538.69" width="41.44" height="41.44" fill="#120078"/><rect x="663" y="497.25" width="82.875" height="82.875" fill="#fecd1a"/><rect x="663" y="497.25" width="41.44" height="41.44" fill="#120078"/><rect x="663" y="497.25" width="41.44" height="41.44" fill="#fd3a69"/><rect x="704.44" y="497.25" width="41.44" height="41.44" fill="#fd3a69"/><rect x="704.44" y="497.25" width="41.44" height="41.44" fill="#fd3a69"/><rect x="663" y="538.69" width="41.44" height="41.44" fill="#fd3a69"/><rect x="663" y="538.69" width="41.44" height="41.44" fill="#fd3a69"/><rect x="704.44" y="538.69" width="41.44" height="41.44" fill="#120078"/><rect x="704.44" y="538.69" width="41.44" height="41.44" fill="#fd3a69"/><rect x="0" y="580.125" width="82.875" height="82.875" fill="#fecd1a"/><rect x="0" y="580.13" width="41.44" height="41.44" fill="#120078"/><rect x="0" y="580.13" width="41.44" height="41.44" fill="#120078"/><rect x="41.44" y="580.13" width="41.44" height="41.44" fill="#120078"/><rect x="41.44" y="580.13" width="41.44" height="41.44" fill="#fd3a69"/><rect x="0" y="621.56" width="41.44" height="41.44" fill="#120078"/><rect x="0" y="621.56" width="41.44" height="41.44" fill="#fd3a69"/><rect x="41.44" y="621.56" width="41.44" height="41.44" fill="#fd3a69"/><rect x="41.44" y="621.56" width="41.44" height="41.44" fill="#120078"/><rect x="82.88" y="580.13" width="82.88" height="82.88" fill="#120078"/><rect x="82.88" y="580.13" width="82.88" height="82.88" fill="#120078"/><rect x="165.75" y="580.125" width="82.875" height="82.875" fill="#fecd1a"/><rect x="165.75" y="580.13" width="41.44" height="41.44" fill="#120078"/><rect x="165.75" y="580.13" width="41.44" height="41.44" fill="#120078"/><rect x="207.19" y="580.13" width="41.44" height="41.44" fill="#120078"/><rect x="207.19" y="580.13" width="41.44" height="41.44" fill="#fd3a69"/><rect x="165.75" y="621.56" width="41.44" height="41.44" fill="#120078"/><rect x="165.75" y="621.56" width="41.44" height="41.44" fill="#120078"/><rect x="207.19" y="621.56" width="41.44" height="41.44" fill="#120078"/><rect x="207.19" y="621.56" width="41.44" height="41.44" fill="#fd3a69"/><rect x="331.5" y="580.125" width="82.875" height="82.875" fill="#fecd1a"/><rect x="331.5" y="580.13" width="41.44" height="41.44" fill="#fd3a69"/><rect x="331.5" y="580.13" width="41.44" height="41.44" fill="#fd3a69"/><rect x="372.94" y="580.13" width="41.44" height="41.44" fill="#fd3a69"/><rect x="372.94" y="580.13" width="41.44" height="41.44" fill="#fd3a69"/><rect x="331.5" y="621.56" width="41.44" height="41.44" fill="#120078"/><rect x="331.5" y="621.56" width="41.44" height="41.44" fill="#120078"/><rect x="372.94" y="621.56" width="41.44" height="41.44" fill="#120078"/><rect x="372.94" y="621.56" width="41.44" height="41.44" fill="#120078"/><rect x="414.375" y="580.125" width="82.875" height="82.875" fill="#fecd1a"/><rect x="414.38" y="580.13" width="41.44" height="41.44" fill="#fd3a69"/><rect x="414.38" y="580.13" width="41.44" height="41.44" fill="#120078"/><rect x="455.81" y="580.13" width="41.44" height="41.44" fill="#fd3a69"/><rect x="455.81" y="580.13" width="41.44" height="41.44" fill="#fd3a69"/><rect x="414.38" y="621.56" width="41.44" height="41.44" fill="#120078"/><rect x="414.38" y="621.56" width="41.44" height="41.44" fill="#fd3a69"/><rect x="455.81" y="621.56" width="41.44" height="41.44" fill="#fd3a69"/><rect x="455.81" y="621.56" width="41.44" height="41.44" fill="#fd3a69"/><rect x="497.25" y="580.13" width="82.88" height="82.88" fill="#120078"/><rect x="497.25" y="580.13" width="82.88" height="82.88" fill="#fd3a69"/></g></svg>